<svg width="210" height="49" viewBox="0 0 210 49" fill="none" xmlns="http://www.w3.org/2000/svg">
<rect width="98" height="49" fill="#3B82F6"/>
<path d="M17.888 36.448C16.16 36.448 14.6347 36.1387 13.312 35.52C11.9893 34.9013 10.9547 34.016 10.208 32.864C9.46133 31.712 9.088 30.3253 9.088 28.704V27.808H13.248V28.704C13.248 30.048 13.664 31.0613 14.496 31.744C15.328 32.4053 16.4587 32.736 17.888 32.736C19.3387 32.736 20.416 32.448 21.12 31.872C21.8453 31.296 22.208 30.56 22.208 29.664C22.208 29.0453 22.0267 28.544 21.664 28.16C21.3227 27.776 20.8107 27.4667 20.128 27.232C19.4667 26.976 18.656 26.7413 17.696 26.528L16.96 26.368C15.424 26.0267 14.1013 25.6 12.992 25.088C11.904 24.5547 11.0613 23.8613 10.464 23.008C9.888 22.1547 9.6 21.0453 9.6 19.68C9.6 18.3147 9.92 17.152 10.56 16.192C11.2213 15.2107 12.1387 14.464 13.312 13.952C14.5067 13.4187 15.904 13.152 17.504 13.152C19.104 13.152 20.5227 13.4293 21.76 13.984C23.0187 14.5173 24 15.328 24.704 16.416C25.4293 17.4827 25.792 18.8267 25.792 20.448V21.408H21.632V20.448C21.632 19.5947 21.4613 18.912 21.12 18.4C20.8 17.8667 20.3307 17.4827 19.712 17.248C19.0933 16.992 18.3573 16.864 17.504 16.864C16.224 16.864 15.2747 17.1093 14.656 17.6C14.0587 18.0693 13.76 18.72 13.76 19.552C13.76 20.1067 13.8987 20.576 14.176 20.96C14.4747 21.344 14.912 21.664 15.488 21.92C16.064 22.176 16.8 22.4 17.696 22.592L18.432 22.752C20.032 23.0933 21.4187 23.5307 22.592 24.064C23.7867 24.5973 24.7147 25.3013 25.376 26.176C26.0373 27.0507 26.368 28.1707 26.368 29.536C26.368 30.9013 26.016 32.1067 25.312 33.152C24.6293 34.176 23.648 34.9867 22.368 35.584C21.1093 36.16 19.616 36.448 17.888 36.448ZM29.5182 36V13.6H33.7423V22.848H42.0623V13.6H46.2863V36H42.0623V26.688H33.7423V36H29.5182ZM59.2223 36.448C56.4063 36.448 54.1663 35.68 52.5023 34.144C50.8383 32.5867 50.0063 30.368 50.0063 27.488V22.112C50.0063 19.232 50.8383 17.024 52.5023 15.488C54.1663 13.9307 56.4063 13.152 59.2223 13.152C62.0383 13.152 64.2783 13.9307 65.9423 15.488C67.6063 17.024 68.4383 19.232 68.4383 22.112V27.488C68.4383 30.368 67.6063 32.5867 65.9423 34.144C64.2783 35.68 62.0383 36.448 59.2223 36.448ZM59.2223 32.672C60.8009 32.672 62.0276 32.2133 62.9023 31.296C63.7769 30.3787 64.2143 29.152 64.2143 27.616V21.984C64.2143 20.448 63.7769 19.2213 62.9023 18.304C62.0276 17.3867 60.8009 16.928 59.2223 16.928C57.6649 16.928 56.4383 17.3867 55.5423 18.304C54.6676 19.2213 54.2303 20.448 54.2303 21.984V27.616C54.2303 29.152 54.6676 30.3787 55.5423 31.296C56.4383 32.2133 57.6649 32.672 59.2223 32.672ZM72.1432 36V13.6H81.3593C82.7673 13.6 84.0046 13.888 85.0713 14.464C86.1593 15.0187 87.0019 15.808 87.5993 16.832C88.2179 17.856 88.5273 19.072 88.5273 20.48V20.928C88.5273 22.3147 88.2073 23.5307 87.5673 24.576C86.9486 25.6 86.0953 26.4 85.0073 26.976C83.9406 27.5307 82.7246 27.808 81.3593 27.808H76.3673V36H72.1432ZM76.3673 23.968H80.9433C81.9459 23.968 82.7566 23.6907 83.3753 23.136C83.9939 22.5813 84.3033 21.824 84.3033 20.864V20.544C84.3033 19.584 83.9939 18.8267 83.3753 18.272C82.7566 17.7173 81.9459 17.44 80.9433 17.44H76.3673V23.968Z" fill="white"/>
<path d="M105.904 36L102.96 13.6H107.152L109.328 33.056H109.904L112.72 13.6H120.016L122.832 33.056H123.408L125.584 13.6H129.776L126.832 36H119.536L116.656 16.096H116.08L113.2 36H105.904ZM132.862 36V13.6H137.086V36H132.862ZM149.076 36.448C147.348 36.448 145.822 36.1387 144.5 35.52C143.177 34.9013 142.142 34.016 141.396 32.864C140.649 31.712 140.276 30.3253 140.276 28.704V27.808H144.436V28.704C144.436 30.048 144.852 31.0613 145.684 31.744C146.516 32.4053 147.646 32.736 149.076 32.736C150.526 32.736 151.604 32.448 152.308 31.872C153.033 31.296 153.396 30.56 153.396 29.664C153.396 29.0453 153.214 28.544 152.852 28.16C152.51 27.776 151.998 27.4667 151.316 27.232C150.654 26.976 149.844 26.7413 148.884 26.528L148.148 26.368C146.612 26.0267 145.289 25.6 144.18 25.088C143.092 24.5547 142.249 23.8613 141.652 23.008C141.076 22.1547 140.788 21.0453 140.788 19.68C140.788 18.3147 141.108 17.152 141.748 16.192C142.409 15.2107 143.326 14.464 144.5 13.952C145.694 13.4187 147.092 13.152 148.692 13.152C150.292 13.152 151.71 13.4293 152.948 13.984C154.206 14.5173 155.188 15.328 155.892 16.416C156.617 17.4827 156.98 18.8267 156.98 20.448V21.408H152.82V20.448C152.82 19.5947 152.649 18.912 152.308 18.4C151.988 17.8667 151.518 17.4827 150.9 17.248C150.281 16.992 149.545 16.864 148.692 16.864C147.412 16.864 146.462 17.1093 145.844 17.6C145.246 18.0693 144.948 18.72 144.948 19.552C144.948 20.1067 145.086 20.576 145.364 20.96C145.662 21.344 146.1 21.664 146.676 21.92C147.252 22.176 147.988 22.4 148.884 22.592L149.62 22.752C151.22 23.0933 152.606 23.5307 153.78 24.064C154.974 24.5973 155.902 25.3013 156.564 26.176C157.225 27.0507 157.556 28.1707 157.556 29.536C157.556 30.9013 157.204 32.1067 156.5 33.152C155.817 34.176 154.836 34.9867 153.556 35.584C152.297 36.16 150.804 36.448 149.076 36.448ZM160.706 36V13.6H175.106V17.44H164.93V22.784H174.21V26.624H164.93V32.16H175.298V36H160.706ZM178.424 36V13.6H182.649V32.16H192.889V36H178.424ZM197.872 36V28.288L190.256 13.6H194.96L199.696 23.2H200.272L205.008 13.6H209.712L202.096 28.288V36H197.872Z" fill="#111827"/>
</svg>
