<svg width="57" height="39" viewBox="0 0 57 39" fill="none" xmlns="http://www.w3.org/2000/svg">
<rect width="31" height="39" fill="#3B82F6"/>
<path d="M15.416 28.336C14.12 28.336 12.976 28.104 11.984 27.64C10.992 27.176 10.216 26.512 9.656 25.648C9.096 24.784 8.816 23.744 8.816 22.528V21.856H11.936V22.528C11.936 23.536 12.248 24.296 12.872 24.808C13.496 25.304 14.344 25.552 15.416 25.552C16.504 25.552 17.312 25.336 17.84 24.904C18.384 24.472 18.656 23.92 18.656 23.248C18.656 22.784 18.52 22.408 18.248 22.12C17.992 21.832 17.608 21.6 17.096 21.424C16.6 21.232 15.992 21.056 15.272 20.896L14.72 20.776C13.568 20.52 12.576 20.2 11.744 19.816C10.928 19.416 10.296 18.896 9.848 18.256C9.416 17.616 9.2 16.784 9.2 15.76C9.2 14.736 9.44 13.864 9.92 13.144C10.416 12.408 11.104 11.848 11.984 11.464C12.88 11.064 13.928 10.864 15.128 10.864C16.328 10.864 17.392 11.072 18.32 11.488C19.264 11.888 20 12.496 20.528 13.312C21.072 14.112 21.344 15.12 21.344 16.336V17.056H18.224V16.336C18.224 15.696 18.096 15.184 17.84 14.8C17.6 14.4 17.248 14.112 16.784 13.936C16.32 13.744 15.768 13.648 15.128 13.648C14.168 13.648 13.456 13.832 12.992 14.2C12.544 14.552 12.32 15.04 12.32 15.664C12.32 16.08 12.424 16.432 12.632 16.72C12.856 17.008 13.184 17.248 13.616 17.44C14.048 17.632 14.6 17.8 15.272 17.944L15.824 18.064C17.024 18.32 18.064 18.648 18.944 19.048C19.84 19.448 20.536 19.976 21.032 20.632C21.528 21.288 21.776 22.128 21.776 23.152C21.776 24.176 21.512 25.08 20.984 25.864C20.472 26.632 19.736 27.24 18.776 27.688C17.832 28.12 16.712 28.336 15.416 28.336Z" fill="white"/>
<path d="M37.928 28L35.72 11.2H38.864L40.496 25.792H40.928L43.04 11.2H48.512L50.624 25.792H51.056L52.688 11.2H55.832L53.624 28H48.152L45.992 13.072H45.56L43.4 28H37.928Z" fill="#111827"/>
</svg>
